{
  "asset": {
    "generator": "Khronos glTF Blender I/O v3.4.50",
    "version": "2.0"
  },
  "scene": 0,
  "scenes": [
    {
      "name": "Scene",
      "nodes": [0]
    }
  ],
  "nodes": [
    {
      "mesh": 0,
      "name": "body",
      "rotation": [0.70710688829422, 0, 0, 0.7071066498756409],
      "scale": [0.13993558287620544, 0.13993555307388306, 0.13993555307388306],
      "translation": [0, -3.8393893241882324, -1.7321789264678955]
    }
  ],
  "animations": [
    {
      "channels": [
        {
          "sampler": 0,
          "target": {
            "node": 0,
            "path": "translation"
          }
        },
        {
          "sampler": 1,
          "target": {
            "node": 0,
            "path": "rotation"
          }
        },
        {
          "sampler": 2,
          "target": {
            "node": 0,
            "path": "scale"
          }
        }
      ],
      "name": "Dog01.009",
      "samplers": [
        {
          "input": 3,
          "interpolation": "LINEAR",
          "output": 4
        },
        {
          "input": 3,
          "interpolation": "LINEAR",
          "output": 5
        },
        {
          "input": 3,
          "interpolation": "LINEAR",
          "output": 6
        }
      ]
    }
  ],
  "materials": [
    {
      "doubleSided": true,
      "name": "Material.007",
      "pbrMetallicRoughness": {
        "baseColorFactor": [0.800000011920929, 0.800000011920929, 0.800000011920929, 1],
        "metallicFactor": 0,
        "roughnessFactor": 0.5
      }
    }
  ],
  "meshes": [
    {
      "name": "Dog01.009",
      "primitives": [
        {
          "attributes": {
            "POSITION": 0,
            "NORMAL": 1
          },
          "indices": 2,
          "material": 0
        }
      ]
    }
  ],
  "accessors": [
    {
      "bufferView": 0,
      "componentType": 5126,
      "count": 616,
      "max": [0.9517833590507507, -9.761543273925781, -10.914528846740723],
      "min": [-0.9517833590507507, -13.168378829956055, -20.222890853881836],
      "type": "VEC3"
    },
    {
      "bufferView": 1,
      "componentType": 5126,
      "count": 616,
      "type": "VEC3"
    },
    {
      "bufferView": 2,
      "componentType": 5123,
      "count": 3606,
      "type": "SCALAR"
    },
    {
      "bufferView": 3,
      "componentType": 5126,
      "count": 2,
      "max": [0.08333333333333333],
      "min": [0.041666666666666664],
      "type": "SCALAR"
    },
    {
      "bufferView": 4,
      "componentType": 5126,
      "count": 2,
      "type": "VEC3"
    },
    {
      "bufferView": 5,
      "componentType": 5126,
      "count": 2,
      "type": "VEC4"
    },
    {
      "bufferView": 6,
      "componentType": 5126,
      "count": 2,
      "type": "VEC3"
    }
  ],
  "bufferViews": [
    {
      "buffer": 0,
      "byteLength": 7392,
      "byteOffset": 0,
      "target": 34962
    },
    {
      "buffer": 0,
      "byteLength": 7392,
      "byteOffset": 7392,
      "target": 34962
    },
    {
      "buffer": 0,
      "byteLength": 7212,
      "byteOffset": 14784,
      "target": 34963
    },
    {
      "buffer": 0,
      "byteLength": 8,
      "byteOffset": 21996
    },
    {
      "buffer": 0,
      "byteLength": 24,
      "byteOffset": 22004
    },
    {
      "buffer": 0,
      "byteLength": 32,
      "byteOffset": 22028
    },
    {
      "buffer": 0,
      "byteLength": 24,
      "byteOffset": 22060
    }
  ],
  "buffers": [
    {
      "byteLength": 22084,
      "uri": "data:application/octet-stream;base64,"
    }
  ]
}
