{
  "asset": {
    "generator": "Khronos glTF Blender I/O v3.4.50",
    "version": "2.0"
  },
  "scene": 0,
  "scenes": [
    {
      "name": "Scene",
      "nodes": [0]
    }
  ],
  "nodes": [
    {
      "mesh": 0,
      "name": "body",
      "rotation": [
        -0.08240269869565964, -0.6212188005447388, -0.777126133441925, 0.058069221675395966
      ],
      "scale": [0.20457515120506287, 0.20457513630390167, 0.20457513630390167],
      "translation": [0.5892945528030396, 2.2623629570007324, -0.301261305809021]
    }
  ],
  "animations": [
    {
      "channels": [
        {
          "sampler": 0,
          "target": {
            "node": 0,
            "path": "translation"
          }
        },
        {
          "sampler": 1,
          "target": {
            "node": 0,
            "path": "rotation"
          }
        },
        {
          "sampler": 2,
          "target": {
            "node": 0,
            "path": "scale"
          }
        }
      ],
      "name": "Dog01.002",
      "samplers": [
        {
          "input": 3,
          "interpolation": "LINEAR",
          "output": 4
        },
        {
          "input": 3,
          "interpolation": "LINEAR",
          "output": 5
        },
        {
          "input": 3,
          "interpolation": "LINEAR",
          "output": 6
        }
      ]
    }
  ],
  "materials": [
    {
      "doubleSided": true,
      "name": "Material.008",
      "pbrMetallicRoughness": {
        "baseColorFactor": [0.800000011920929, 0.800000011920929, 0.800000011920929, 1],
        "metallicFactor": 0,
        "roughnessFactor": 0.5
      }
    }
  ],
  "meshes": [
    {
      "name": "Dog01.004",
      "primitives": [
        {
          "attributes": {
            "POSITION": 0,
            "NORMAL": 1
          },
          "indices": 2,
          "material": 0
        }
      ]
    }
  ],
  "accessors": [
    {
      "bufferView": 0,
      "componentType": 5126,
      "count": 616,
      "max": [0.8496240377426147, -9.538382530212402, -11.733732223510742],
      "min": [-0.8496240377426147, -13.181373596191406, -20.222890853881836],
      "type": "VEC3"
    },
    {
      "bufferView": 1,
      "componentType": 5126,
      "count": 616,
      "type": "VEC3"
    },
    {
      "bufferView": 2,
      "componentType": 5123,
      "count": 3606,
      "type": "SCALAR"
    },
    {
      "bufferView": 3,
      "componentType": 5126,
      "count": 2,
      "max": [0.08333333333333333],
      "min": [0.041666666666666664],
      "type": "SCALAR"
    },
    {
      "bufferView": 4,
      "componentType": 5126,
      "count": 2,
      "type": "VEC3"
    },
    {
      "bufferView": 5,
      "componentType": 5126,
      "count": 2,
      "type": "VEC4"
    },
    {
      "bufferView": 6,
      "componentType": 5126,
      "count": 2,
      "type": "VEC3"
    }
  ],
  "bufferViews": [
    {
      "buffer": 0,
      "byteLength": 7392,
      "byteOffset": 0,
      "target": 34962
    },
    {
      "buffer": 0,
      "byteLength": 7392,
      "byteOffset": 7392,
      "target": 34962
    },
    {
      "buffer": 0,
      "byteLength": 7212,
      "byteOffset": 14784,
      "target": 34963
    },
    {
      "buffer": 0,
      "byteLength": 8,
      "byteOffset": 21996
    },
    {
      "buffer": 0,
      "byteLength": 24,
      "byteOffset": 22004
    },
    {
      "buffer": 0,
      "byteLength": 32,
      "byteOffset": 22028
    },
    {
      "buffer": 0,
      "byteLength": 24,
      "byteOffset": 22060
    }
  ],
  "buffers": [
    {
      "byteLength": 22084,
      "uri": "data:application/octet-stream;base64,"
    }
  ]
}
