{
    "asset" : {
        "generator" : "Khronos glTF Blender I/O v3.4.50",
        "version" : "2.0"
    },
    "scene" : 0,
    "scenes" : [
        {
            "name" : "Scene",
            "nodes" : [
                0
            ]
        }
    ],
    "nodes" : [
        {
            "mesh" : 0,
            "name" : "Dog01.003",
            "rotation" : [
                0.70710688829422,
                0,
                0,
                0.7071066498756409
            ],
            "scale" : [
                0.13993558287620544,
                0.13993558287620544,
                0.13993558287620544
            ],
            "translation" : [
                0,
                -3.8393893241882324,
                -1.7321789264678955
            ]
        }
    ],
    "animations" : [
        {
            "channels" : [
                {
                    "sampler" : 0,
                    "target" : {
                        "node" : 0,
                        "path" : "translation"
                    }
                },
                {
                    "sampler" : 1,
                    "target" : {
                        "node" : 0,
                        "path" : "rotation"
                    }
                },
                {
                    "sampler" : 2,
                    "target" : {
                        "node" : 0,
                        "path" : "scale"
                    }
                }
            ],
            "name" : "Dog01.003",
            "samplers" : [
                {
                    "input" : 3,
                    "interpolation" : "LINEAR",
                    "output" : 4
                },
                {
                    "input" : 3,
                    "interpolation" : "LINEAR",
                    "output" : 5
                },
                {
                    "input" : 3,
                    "interpolation" : "LINEAR",
                    "output" : 6
                }
            ]
        }
    ],
    "materials" : [
        {
            "doubleSided" : true,
            "name" : "Material.012",
            "pbrMetallicRoughness" : {
                "baseColorFactor" : [
                    0.800000011920929,
                    0.800000011920929,
                    0.800000011920929,
                    1
                ],
                "metallicFactor" : 0,
                "roughnessFactor" : 0.5
            }
        }
    ],
    "meshes" : [
        {
            "name" : "Dog01.003",
            "primitives" : [
                {
                    "attributes" : {
                        "POSITION" : 0,
                        "NORMAL" : 1
                    },
                    "indices" : 2,
                    "material" : 0
                }
            ]
        }
    ],
    "accessors" : [
        {
            "bufferView" : 0,
            "componentType" : 5126,
            "count" : 300,
            "max" : [
                1.2705280780792236,
                25.05094337463379,
                -29.624006271362305
            ],
            "min" : [
                -1.2705280780792236,
                23.85226821899414,
                -31.347187042236328
            ],
            "type" : "VEC3"
        },
        {
            "bufferView" : 1,
            "componentType" : 5126,
            "count" : 300,
            "type" : "VEC3"
        },
        {
            "bufferView" : 2,
            "componentType" : 5123,
            "count" : 1668,
            "type" : "SCALAR"
        },
        {
            "bufferView" : 3,
            "componentType" : 5126,
            "count" : 2,
            "max" : [
                0.08333333333333333
            ],
            "min" : [
                0.041666666666666664
            ],
            "type" : "SCALAR"
        },
        {
            "bufferView" : 4,
            "componentType" : 5126,
            "count" : 2,
            "type" : "VEC3"
        },
        {
            "bufferView" : 5,
            "componentType" : 5126,
            "count" : 2,
            "type" : "VEC4"
        },
        {
            "bufferView" : 6,
            "componentType" : 5126,
            "count" : 2,
            "type" : "VEC3"
        }
    ],
    "bufferViews" : [
        {
            "buffer" : 0,
            "byteLength" : 3600,
            "byteOffset" : 0,
            "target" : 34962
        },
        {
            "buffer" : 0,
            "byteLength" : 3600,
            "byteOffset" : 3600,
            "target" : 34962
        },
        {
            "buffer" : 0,
            "byteLength" : 3336,
            "byteOffset" : 7200,
            "target" : 34963
        },
        {
            "buffer" : 0,
            "byteLength" : 8,
            "byteOffset" : 10536
        },
        {
            "buffer" : 0,
            "byteLength" : 24,
            "byteOffset" : 10544
        },
        {
            "buffer" : 0,
            "byteLength" : 32,
            "byteOffset" : 10568
        },
        {
            "buffer" : 0,
            "byteLength" : 24,
            "byteOffset" : 10600
        }
    ],
    "buffers" : [
        {
            "byteLength" : 10624,
            "uri" : "data:application/octet-stream;base64,"
        }
    ]
}
