<svg
  xmlns="http://www.w3.org/2000/svg"
  width="718.307"
  height="1220.841"
  viewBox="0 0 718.307 1220.841"
>
  <g id="paws" transform="translate(-910.459 87.679)">
    <g id="Group_15" data-name="Group 15" transform="translate(450.017 784.638) rotate(-9)">
      <path
        id="Path_9"
        data-name="Path 9"
        d="M43.977-21.982c14.014,0,43.977,31.942,43.977,59.184s-21.989,6.1-43.977,6.1S0,64.445,0,37.2,29.963-21.982,43.977-21.982Z"
        transform="translate(1033.621 279.958)"
        fill="#0fa3b1"
      />
      <path
        id="Path_10"
        data-name="Path 10"
        d="M15.908,0C25.5,0,31.962,11.134,31.962,24.751S25.5,49.312,15.908,49.312,0,33.329,0,19.712,6.318,0,15.908,0Z"
        transform="matrix(0.966, -0.259, 0.259, 0.966, 1001.253, 241.518)"
        fill="#0fa3b1"
      />
      <path
        id="Path_13"
        data-name="Path 13"
        d="M15.908,49.312c9.59,0,16.055-11.134,16.055-24.751S25.5,0,15.908,0,0,15.983,0,29.6,6.318,49.312,15.908,49.312Z"
        transform="translate(1137.115 290.094) rotate(-159)"
        fill="#0fa3b1"
      />
      <path
        id="Path_12"
        data-name="Path 12"
        d="M17.851,0C28.612,0,35.867,12.7,35.867,28.227S28.612,56.236,17.851,56.236,0,38.009,0,22.48,7.089,0,17.851,0Z"
        transform="translate(1034.254 204.123) rotate(-8)"
        fill="#0fa3b1"
      />
      <path
        id="Path_14"
        data-name="Path 14"
        d="M17.851,55.357c10.761,0,18.016-12.5,18.016-27.786S28.612,0,17.851,0,0,17.942,0,33.229,7.089,55.357,17.851,55.357Z"
        transform="translate(1113.115 259.376) rotate(-172)"
        fill="#0fa3b1"
      />
    </g>
    <g id="Group_21" data-name="Group 21" transform="translate(277.731 967.85) rotate(-9)">
      <path
        id="Path_9-2"
        data-name="Path 9"
        d="M43.977-21.982c14.014,0,43.977,31.942,43.977,59.184s-21.989,6.1-43.977,6.1S0,64.445,0,37.2,29.963-21.982,43.977-21.982Z"
        transform="translate(1033.621 279.958)"
        fill="#0fa3b1"
      />
      <path
        id="Path_10-2"
        data-name="Path 10"
        d="M15.908,0C25.5,0,31.962,11.134,31.962,24.751S25.5,49.312,15.908,49.312,0,33.329,0,19.712,6.318,0,15.908,0Z"
        transform="matrix(0.966, -0.259, 0.259, 0.966, 1001.253, 241.518)"
        fill="#0fa3b1"
      />
      <path
        id="Path_13-2"
        data-name="Path 13"
        d="M15.908,49.312c9.59,0,16.055-11.134,16.055-24.751S25.5,0,15.908,0,0,15.983,0,29.6,6.318,49.312,15.908,49.312Z"
        transform="translate(1137.115 290.094) rotate(-159)"
        fill="#0fa3b1"
      />
      <path
        id="Path_12-2"
        data-name="Path 12"
        d="M17.851,0C28.612,0,35.867,12.7,35.867,28.227S28.612,56.236,17.851,56.236,0,38.009,0,22.48,7.089,0,17.851,0Z"
        transform="translate(1034.254 204.123) rotate(-8)"
        fill="#0fa3b1"
      />
      <path
        id="Path_14-2"
        data-name="Path 14"
        d="M17.851,55.357c10.761,0,18.016-12.5,18.016-27.786S28.612,0,17.851,0,0,17.942,0,33.229,7.089,55.357,17.851,55.357Z"
        transform="translate(1113.115 259.376) rotate(-172)"
        fill="#0fa3b1"
      />
    </g>
    <g id="Group_16" data-name="Group 16" transform="translate(200.967 863.828) rotate(-20)">
      <path
        id="Path_9-3"
        data-name="Path 9"
        d="M43.977-21.982c14.014,0,43.977,31.942,43.977,59.184s-21.989,6.1-43.977,6.1S0,64.445,0,37.2,29.963-21.982,43.977-21.982Z"
        transform="translate(1033.621 279.958)"
        fill="#0fa3b1"
      />
      <path
        id="Path_10-3"
        data-name="Path 10"
        d="M15.908,0C25.5,0,31.962,11.134,31.962,24.751S25.5,49.312,15.908,49.312,0,33.329,0,19.712,6.318,0,15.908,0Z"
        transform="matrix(0.966, -0.259, 0.259, 0.966, 1001.253, 241.518)"
        fill="#0fa3b1"
      />
      <path
        id="Path_13-3"
        data-name="Path 13"
        d="M15.908,49.312c9.59,0,16.055-11.134,16.055-24.751S25.5,0,15.908,0,0,15.983,0,29.6,6.318,49.312,15.908,49.312Z"
        transform="translate(1137.115 290.094) rotate(-159)"
        fill="#0fa3b1"
      />
      <path
        id="Path_12-3"
        data-name="Path 12"
        d="M17.851,0C28.612,0,35.867,12.7,35.867,28.227S28.612,56.236,17.851,56.236,0,38.009,0,22.48,7.089,0,17.851,0Z"
        transform="translate(1034.254 204.123) rotate(-8)"
        fill="#0fa3b1"
      />
      <path
        id="Path_14-3"
        data-name="Path 14"
        d="M17.851,55.357c10.761,0,18.016-12.5,18.016-27.786S28.612,0,17.851,0,0,17.942,0,33.229,7.089,55.357,17.851,55.357Z"
        transform="translate(1113.115 259.376) rotate(-172)"
        fill="#0fa3b1"
      />
    </g>
    <g id="Group_17" data-name="Group 17" transform="translate(317.068 495.836) rotate(-13)">
      <path
        id="Path_9-4"
        data-name="Path 9"
        d="M43.977-21.982c14.014,0,43.977,31.942,43.977,59.184s-21.989,6.1-43.977,6.1S0,64.445,0,37.2,29.963-21.982,43.977-21.982Z"
        transform="translate(1033.621 279.958)"
        fill="#0fa3b1"
      />
      <path
        id="Path_10-4"
        data-name="Path 10"
        d="M15.908,0C25.5,0,31.962,11.134,31.962,24.751S25.5,49.312,15.908,49.312,0,33.329,0,19.712,6.318,0,15.908,0Z"
        transform="matrix(0.966, -0.259, 0.259, 0.966, 1001.253, 241.518)"
        fill="#0fa3b1"
      />
      <path
        id="Path_13-4"
        data-name="Path 13"
        d="M15.908,49.312c9.59,0,16.055-11.134,16.055-24.751S25.5,0,15.908,0,0,15.983,0,29.6,6.318,49.312,15.908,49.312Z"
        transform="translate(1137.115 290.094) rotate(-159)"
        fill="#0fa3b1"
      />
      <path
        id="Path_12-4"
        data-name="Path 12"
        d="M17.851,0C28.612,0,35.867,12.7,35.867,28.227S28.612,56.236,17.851,56.236,0,38.009,0,22.48,7.089,0,17.851,0Z"
        transform="translate(1034.254 204.123) rotate(-8)"
        fill="#0fa3b1"
      />
      <path
        id="Path_14-4"
        data-name="Path 14"
        d="M17.851,55.357c10.761,0,18.016-12.5,18.016-27.786S28.612,0,17.851,0,0,17.942,0,33.229,7.089,55.357,17.851,55.357Z"
        transform="translate(1113.115 259.376) rotate(-172)"
        fill="#0fa3b1"
      />
    </g>
    <g
      id="Group_18"
      data-name="Group 18"
      transform="matrix(0.788, -0.616, 0.616, 0.788, 142.169, 895.537)"
    >
      <path
        id="Path_9-5"
        data-name="Path 9"
        d="M43.977-21.982c14.014,0,43.977,31.942,43.977,59.184s-21.989,6.1-43.977,6.1S0,64.445,0,37.2,29.963-21.982,43.977-21.982Z"
        transform="translate(1033.621 279.958)"
        fill="#0fa3b1"
      />
      <path
        id="Path_10-5"
        data-name="Path 10"
        d="M15.908,0C25.5,0,31.962,11.134,31.962,24.751S25.5,49.312,15.908,49.312,0,33.329,0,19.712,6.318,0,15.908,0Z"
        transform="matrix(0.966, -0.259, 0.259, 0.966, 1001.253, 241.518)"
        fill="#0fa3b1"
      />
      <path
        id="Path_13-5"
        data-name="Path 13"
        d="M15.908,49.312c9.59,0,16.055-11.134,16.055-24.751S25.5,0,15.908,0,0,15.983,0,29.6,6.318,49.312,15.908,49.312Z"
        transform="translate(1137.115 290.094) rotate(-159)"
        fill="#0fa3b1"
      />
      <path
        id="Path_12-5"
        data-name="Path 12"
        d="M17.851,0C28.612,0,35.867,12.7,35.867,28.227S28.612,56.236,17.851,56.236,0,38.009,0,22.48,7.089,0,17.851,0Z"
        transform="translate(1034.254 204.123) rotate(-8)"
        fill="#0fa3b1"
      />
      <path
        id="Path_14-5"
        data-name="Path 14"
        d="M17.851,55.357c10.761,0,18.016-12.5,18.016-27.786S28.612,0,17.851,0,0,17.942,0,33.229,7.089,55.357,17.851,55.357Z"
        transform="translate(1113.115 259.376) rotate(-172)"
        fill="#0fa3b1"
      />
    </g>
    <g id="Group_19" data-name="Group 19" transform="translate(145.102 365.164) rotate(-23)">
      <path
        id="Path_9-6"
        data-name="Path 9"
        d="M43.977-21.982c14.014,0,43.977,31.942,43.977,59.184s-21.989,6.1-43.977,6.1S0,64.445,0,37.2,29.963-21.982,43.977-21.982Z"
        transform="translate(1033.621 279.958)"
        fill="#0fa3b1"
      />
      <path
        id="Path_10-6"
        data-name="Path 10"
        d="M15.908,0C25.5,0,31.962,11.134,31.962,24.751S25.5,49.312,15.908,49.312,0,33.329,0,19.712,6.318,0,15.908,0Z"
        transform="matrix(0.966, -0.259, 0.259, 0.966, 1001.253, 241.518)"
        fill="#0fa3b1"
      />
      <path
        id="Path_13-6"
        data-name="Path 13"
        d="M15.908,49.312c9.59,0,16.055-11.134,16.055-24.751S25.5,0,15.908,0,0,15.983,0,29.6,6.318,49.312,15.908,49.312Z"
        transform="translate(1137.115 290.094) rotate(-159)"
        fill="#0fa3b1"
      />
      <path
        id="Path_12-6"
        data-name="Path 12"
        d="M17.851,0C28.612,0,35.867,12.7,35.867,28.227S28.612,56.236,17.851,56.236,0,38.009,0,22.48,7.089,0,17.851,0Z"
        transform="translate(1034.254 204.123) rotate(-8)"
        fill="#0fa3b1"
      />
      <path
        id="Path_14-6"
        data-name="Path 14"
        d="M17.851,55.357c10.761,0,18.016-12.5,18.016-27.786S28.612,0,17.851,0,0,17.942,0,33.229,7.089,55.357,17.851,55.357Z"
        transform="translate(1113.115 259.376) rotate(-172)"
        fill="#0fa3b1"
      />
    </g>
    <g id="Group_22" data-name="Group 22" transform="translate(17.593 161.964) rotate(-23)">
      <path
        id="Path_9-7"
        data-name="Path 9"
        d="M43.977-21.982c14.014,0,43.977,31.942,43.977,59.184s-21.989,6.1-43.977,6.1S0,64.445,0,37.2,29.963-21.982,43.977-21.982Z"
        transform="translate(1033.621 279.958)"
        fill="#0fa3b1"
      />
      <path
        id="Path_10-7"
        data-name="Path 10"
        d="M15.908,0C25.5,0,31.962,11.134,31.962,24.751S25.5,49.312,15.908,49.312,0,33.329,0,19.712,6.318,0,15.908,0Z"
        transform="matrix(0.966, -0.259, 0.259, 0.966, 1001.253, 241.518)"
        fill="#0fa3b1"
      />
      <path
        id="Path_13-7"
        data-name="Path 13"
        d="M15.908,49.312c9.59,0,16.055-11.134,16.055-24.751S25.5,0,15.908,0,0,15.983,0,29.6,6.318,49.312,15.908,49.312Z"
        transform="translate(1137.115 290.094) rotate(-159)"
        fill="#0fa3b1"
      />
      <path
        id="Path_12-7"
        data-name="Path 12"
        d="M17.851,0C28.612,0,35.867,12.7,35.867,28.227S28.612,56.236,17.851,56.236,0,38.009,0,22.48,7.089,0,17.851,0Z"
        transform="translate(1034.254 204.123) rotate(-8)"
        fill="#0fa3b1"
      />
      <path
        id="Path_14-7"
        data-name="Path 14"
        d="M17.851,55.357c10.761,0,18.016-12.5,18.016-27.786S28.612,0,17.851,0,0,17.942,0,33.229,7.089,55.357,17.851,55.357Z"
        transform="translate(1113.115 259.376) rotate(-172)"
        fill="#0fa3b1"
      />
    </g>
    <g
      id="Group_20"
      data-name="Group 20"
      transform="matrix(0.669, -0.743, 0.743, 0.669, 66.716, 822.184)"
    >
      <path
        id="Path_9-8"
        data-name="Path 9"
        d="M43.977-21.982c14.014,0,43.977,31.942,43.977,59.184s-21.989,6.1-43.977,6.1S0,64.445,0,37.2,29.963-21.982,43.977-21.982Z"
        transform="translate(1033.621 279.958)"
        fill="#0fa3b1"
      />
      <path
        id="Path_10-8"
        data-name="Path 10"
        d="M15.908,0C25.5,0,31.962,11.134,31.962,24.751S25.5,49.312,15.908,49.312,0,33.329,0,19.712,6.318,0,15.908,0Z"
        transform="matrix(0.966, -0.259, 0.259, 0.966, 1001.253, 241.518)"
        fill="#0fa3b1"
      />
      <path
        id="Path_13-8"
        data-name="Path 13"
        d="M15.908,49.312c9.59,0,16.055-11.134,16.055-24.751S25.5,0,15.908,0,0,15.983,0,29.6,6.318,49.312,15.908,49.312Z"
        transform="translate(1137.115 290.094) rotate(-159)"
        fill="#0fa3b1"
      />
      <path
        id="Path_12-8"
        data-name="Path 12"
        d="M17.851,0C28.612,0,35.867,12.7,35.867,28.227S28.612,56.236,17.851,56.236,0,38.009,0,22.48,7.089,0,17.851,0Z"
        transform="translate(1034.254 204.123) rotate(-8)"
        fill="#0fa3b1"
      />
      <path
        id="Path_14-8"
        data-name="Path 14"
        d="M17.851,55.357c10.761,0,18.016-12.5,18.016-27.786S28.612,0,17.851,0,0,17.942,0,33.229,7.089,55.357,17.851,55.357Z"
        transform="translate(1113.115 259.376) rotate(-172)"
        fill="#0fa3b1"
      />
    </g>
  </g>
</svg>
