<?xml version="1.0" standalone="no"?>
<!DOCTYPE svg PUBLIC "-//W3C//DTD SVG 20010904//EN"
 "http://www.w3.org/TR/2001/REC-SVG-20010904/DTD/svg10.dtd">
<svg version="1.0" xmlns="http://www.w3.org/2000/svg"
 width="379.000000pt" height="379.000000pt" viewBox="0 0 379.000000 379.000000"
 preserveAspectRatio="xMidYMid meet">
<metadata>
Created by potrace 1.14, written by Peter Selinger 2001-2017
</metadata>
<g transform="translate(0.000000,379.000000) scale(0.100000,-0.100000)"
fill="#000000" stroke="none">
<path d="M830 3260 c-132 -28 -266 -98 -332 -174 -43 -49 -84 -142 -113 -256
-27 -109 -58 -197 -84 -240 -13 -22 -62 -84 -173 -221 -41 -51 -95 -166 -112
-239 -16 -65 -16 -285 -2 -355 35 -163 78 -246 162 -314 57 -44 149 -71 250
-73 71 -1 91 3 138 26 124 61 235 242 290 476 27 117 34 177 40 350 5 128 28
210 94 330 82 151 253 373 408 532 l75 76 -68 25 c-149 55 -210 67 -373 72
-84 3 -138 -1 -200 -15z"/>
<path d="M2600 3264 c-88 -16 -202 -49 -247 -73 l-32 -16 63 -65 c165 -169
342 -403 423 -560 66 -128 82 -192 88 -344 4 -102 12 -175 31 -286 19 -110 87
-279 150 -370 40 -58 56 -74 120 -119 115 -83 354 -46 459 71 80 88 126 236
130 422 5 250 -36 343 -282 640 -30 37 -65 128 -99 257 -40 157 -80 235 -151
298 -65 58 -183 117 -272 137 -92 21 -289 25 -381 8z"/>
<path d="M1392 2501 c-101 -34 -185 -114 -233 -219 -44 -97 -29 -132 57 -132
40 0 42 2 48 34 10 54 64 152 101 185 117 102 258 33 311 -154 l19 -65 37 0
c24 0 45 7 57 19 17 17 18 25 9 58 -58 213 -235 332 -406 274z"/>
<path d="M2260 2506 c-111 -31 -243 -175 -264 -288 -6 -31 -3 -39 16 -52 12
-9 42 -16 65 -16 36 0 43 3 43 20 0 30 53 140 86 179 79 94 207 86 277 -16 28
-41 67 -137 67 -165 0 -14 8 -18 38 -18 57 0 76 18 70 67 -14 103 -111 233
-206 275 -52 24 -137 30 -192 14z"/>
<path d="M1695 1865 c-253 -61 -384 -210 -315 -358 46 -98 193 -185 360 -213
25 -4 50 -8 55 -9 6 -1 16 -3 23 -3 9 -2 12 -41 12 -161 l0 -158 -62 -28
c-186 -83 -313 -84 -478 -2 -56 28 -70 31 -99 23 -41 -12 -59 -45 -43 -80 14
-32 155 -102 242 -120 64 -14 211 -15 261 -1 26 6 26 5 31 -53 13 -138 93
-201 246 -190 117 9 180 70 190 184 l5 61 36 -8 c54 -12 208 -3 271 16 30 10
82 30 116 46 103 50 127 87 82 129 -27 25 -73 26 -113 2 -46 -28 -160 -62
-229 -69 -79 -7 -152 9 -243 52 l-73 35 0 160 c0 182 -13 160 102 179 167 29
319 130 350 233 70 233 -349 425 -727 333z"/>
</g>
</svg>
