{
    "asset" : {
        "generator" : "Khronos glTF Blender I/O v3.4.50",
        "version" : "2.0"
    },
    "scene" : 0,
    "scenes" : [
        {
            "name" : "Scene",
            "nodes" : [
                0,
                1,
                2,
                3,
                4,
                5,
                6,
                7,
                8,
                9
            ]
        }
    ],
    "nodes" : [
        {
            "mesh" : 0,
            "name" : "Cube.012",
            "rotation" : [
                0.1450849175453186,
                -0.22965291142463684,
                -0.19291090965270996,
                0.9428654909133911
            ],
            "scale" : [
                0.359546422958374,
                0.35954639315605164,
                0.35954639315605164
            ],
            "translation" : [
                -0.4248495101928711,
                0.39410898089408875,
                0.1860465109348297
            ]
        },
        {
            "mesh" : 1,
            "name" : "Cube.013",
            "rotation" : [
                -0.030081583186984062,
                -0.23823389410972595,
                0.0008869115845300257,
                0.9707414507865906
            ],
            "scale" : [
                0.15587826073169708,
                0.15587827563285828,
                0.1558782309293747
            ],
            "translation" : [
                -0.4903416633605957,
                0.39915308356285095,
                0.9086368083953857
            ]
        },
        {
            "mesh" : 2,
            "name" : "Cube.014",
            "rotation" : [
                -0.03008158504962921,
                -0.23823387920856476,
                0.0008869113516993821,
                0.9707414507865906
            ],
            "scale" : [
                0.1141352429986,
                0.11413523554801941,
                0.11413523554801941
            ],
            "translation" : [
                -0.49107635021209717,
                0.4103914499282837,
                0.8579345345497131
            ]
        },
        {
            "mesh" : 3,
            "name" : "Cube.015",
            "rotation" : [
                -0.10387740284204483,
                -0.1436832696199417,
                0.014563603326678276,
                0.9840490221977234
            ],
            "scale" : [
                -0.0528498999774456,
                -0.05284992232918739,
                -0.0528498999774456
            ],
            "translation" : [
                -0.36843135952949524,
                0.5221052765846252,
                0.6160452961921692
            ]
        },
        {
            "mesh" : 4,
            "name" : "Cube.004",
            "rotation" : [
                -0.9428654909133911,
                -0.19291087985038757,
                0.22965289652347565,
                0.1450849324464798
            ],
            "scale" : [
                -0.3595464527606964,
                -0.359546422958374,
                -0.35954639315605164
            ],
            "translation" : [
                0.46091228723526,
                0.37417179346084595,
                0.1812361776828766
            ]
        },
        {
            "mesh" : 5,
            "name" : "Cube.005",
            "rotation" : [
                0.9687222838401794,
                -0.010549566708505154,
                -0.23800186812877655,
                0.06943259388208389
            ],
            "scale" : [
                -0.15587827563285828,
                -0.15587827563285828,
                -0.1558782309293747
            ],
            "translation" : [
                0.5165572166442871,
                0.41871803998947144,
                0.9121976494789124
            ]
        },
        {
            "mesh" : 6,
            "name" : "Cube.006",
            "rotation" : [
                0.9697527885437012,
                -0.006546492222696543,
                -0.23814557492733002,
                0.053135406225919724
            ],
            "scale" : [
                -0.1141352429986,
                -0.1141352429986,
                -0.11413522064685822
            ],
            "translation" : [
                0.5280224680900574,
                0.4127313196659088,
                0.8586196899414062
            ]
        },
        {
            "mesh" : 7,
            "name" : "Cube.007",
            "rotation" : [
                0.9840490221977234,
                -0.014563599601387978,
                -0.1436832696199417,
                0.10387741029262543
            ],
            "scale" : [
                0.0528498999774456,
                0.052849918603897095,
                0.0528499037027359
            ],
            "translation" : [
                0.40368950366973877,
                0.5246646404266357,
                0.6173729300498962
            ]
        },
        {
            "mesh" : 8,
            "name" : "polySurface4.002",
            "rotation" : [
                -0.7071066498756409,
                0,
                0,
                0.70710688829422
            ],
            "scale" : [
                -0.9806842803955078,
                -0.6264811754226685,
                -0.3980492651462555
            ],
            "translation" : [
                0.00494892243295908,
                0.3383083641529083,
                0.18312682211399078
            ]
        },
        {
            "mesh" : 9,
            "name" : "polySurface4.004",
            "rotation" : [
                0.70710688829422,
                0,
                0,
                0.7071066498756409
            ],
            "scale" : [
                0.9806842803955078,
                0.6264811754226685,
                0.3980492651462555
            ],
            "translation" : [
                0.00494892243295908,
                0.3383083641529083,
                0.2139052152633667
            ]
        }
    ],
    "materials" : [
        {
            "doubleSided" : true,
            "name" : "Material.005",
            "pbrMetallicRoughness" : {
                "baseColorFactor" : [
                    0.800000011920929,
                    0.800000011920929,
                    0.800000011920929,
                    1
                ],
                "metallicFactor" : 0,
                "roughnessFactor" : 0.5
            }
        },
        {
            "doubleSided" : true,
            "name" : "Material.006",
            "pbrMetallicRoughness" : {
                "baseColorFactor" : [
                    0.800000011920929,
                    0.800000011920929,
                    0.800000011920929,
                    1
                ],
                "metallicFactor" : 0,
                "roughnessFactor" : 0.5
            }
        },
        {
            "doubleSided" : true,
            "name" : "Material.007",
            "pbrMetallicRoughness" : {
                "baseColorFactor" : [
                    0.800000011920929,
                    0.800000011920929,
                    0.800000011920929,
                    1
                ],
                "metallicFactor" : 0,
                "roughnessFactor" : 0.5
            }
        },
        {
            "doubleSided" : true,
            "name" : "Material.008",
            "pbrMetallicRoughness" : {
                "baseColorFactor" : [
                    0.800000011920929,
                    0.800000011920929,
                    0.800000011920929,
                    1
                ],
                "metallicFactor" : 0,
                "roughnessFactor" : 0.5
            }
        }
    ],
    "meshes" : [
        {
            "name" : "Mesh",
            "primitives" : [
                {
                    "attributes" : {
                        "POSITION" : 0,
                        "NORMAL" : 1
                    },
                    "indices" : 2
                }
            ]
        },
        {
            "name" : "Mesh",
            "primitives" : [
                {
                    "attributes" : {
                        "POSITION" : 3,
                        "NORMAL" : 4
                    },
                    "indices" : 2,
                    "material" : 0
                }
            ]
        },
        {
            "name" : "Mesh",
            "primitives" : [
                {
                    "attributes" : {
                        "POSITION" : 5,
                        "NORMAL" : 6
                    },
                    "indices" : 2,
                    "material" : 1
                }
            ]
        },
        {
            "name" : "Mesh",
            "primitives" : [
                {
                    "attributes" : {
                        "POSITION" : 7,
                        "NORMAL" : 8
                    },
                    "indices" : 2,
                    "material" : 2
                }
            ]
        },
        {
            "name" : "Mesh",
            "primitives" : [
                {
                    "attributes" : {
                        "POSITION" : 9,
                        "NORMAL" : 10
                    },
                    "indices" : 2
                }
            ]
        },
        {
            "name" : "Mesh",
            "primitives" : [
                {
                    "attributes" : {
                        "POSITION" : 11,
                        "NORMAL" : 12
                    },
                    "indices" : 2,
                    "material" : 0
                }
            ]
        },
        {
            "name" : "Mesh",
            "primitives" : [
                {
                    "attributes" : {
                        "POSITION" : 13,
                        "NORMAL" : 14
                    },
                    "indices" : 2,
                    "material" : 1
                }
            ]
        },
        {
            "name" : "Mesh",
            "primitives" : [
                {
                    "attributes" : {
                        "POSITION" : 15,
                        "NORMAL" : 16
                    },
                    "indices" : 2,
                    "material" : 2
                }
            ]
        },
        {
            "name" : "Mesh.013",
            "primitives" : [
                {
                    "attributes" : {
                        "POSITION" : 17,
                        "NORMAL" : 18
                    },
                    "indices" : 19,
                    "material" : 3
                }
            ]
        },
        {
            "name" : "Mesh.011",
            "primitives" : [
                {
                    "attributes" : {
                        "POSITION" : 20,
                        "NORMAL" : 21
                    },
                    "indices" : 19,
                    "material" : 3
                }
            ]
        }
    ],
    "accessors" : [
        {
            "bufferView" : 0,
            "componentType" : 5126,
            "count" : 386,
            "max" : [
                1.2280513048171997,
                1.0571041107177734,
                1.244145154953003
            ],
            "min" : [
                -0.6295637488365173,
                -0.7194019556045532,
                -0.8000171780586243
            ],
            "type" : "VEC3"
        },
        {
            "bufferView" : 1,
            "componentType" : 5126,
            "count" : 386,
            "type" : "VEC3"
        },
        {
            "bufferView" : 2,
            "componentType" : 5123,
            "count" : 2304,
            "type" : "SCALAR"
        },
        {
            "bufferView" : 3,
            "componentType" : 5126,
            "count" : 386,
            "max" : [
                0.7725487351417542,
                1.3833093643188477,
                -1.42262864112854
            ],
            "min" : [
                -1.4749116897583008,
                -0.8021184802055359,
                -2.042104721069336
            ],
            "type" : "VEC3"
        },
        {
            "bufferView" : 4,
            "componentType" : 5126,
            "count" : 386,
            "type" : "VEC3"
        },
        {
            "bufferView" : 5,
            "componentType" : 5126,
            "count" : 386,
            "max" : [
                1.0090678930282593,
                1.5482255220413208,
                -1.3504400253295898
            ],
            "min" : [
                -1.0809231996536255,
                -0.7398022413253784,
                -2.0627143383026123
            ],
            "type" : "VEC3"
        },
        {
            "bufferView" : 6,
            "componentType" : 5126,
            "count" : 386,
            "type" : "VEC3"
        },
        {
            "bufferView" : 7,
            "componentType" : 5126,
            "count" : 386,
            "max" : [
                0.6181819438934326,
                1.4798953533172607,
                -1.3836636543273926
            ],
            "min" : [
                -0.7044265866279602,
                0.03588023781776428,
                -1.9918524026870728
            ],
            "type" : "VEC3"
        },
        {
            "bufferView" : 8,
            "componentType" : 5126,
            "count" : 386,
            "type" : "VEC3"
        },
        {
            "bufferView" : 9,
            "componentType" : 5126,
            "count" : 386,
            "max" : [
                1.2280513048171997,
                1.0571041107177734,
                1.244145154953003
            ],
            "min" : [
                -0.6295637488365173,
                -0.7194019556045532,
                -0.8000171780586243
            ],
            "type" : "VEC3"
        },
        {
            "bufferView" : 10,
            "componentType" : 5126,
            "count" : 386,
            "type" : "VEC3"
        },
        {
            "bufferView" : 11,
            "componentType" : 5126,
            "count" : 386,
            "max" : [
                0.7725487351417542,
                1.3833093643188477,
                -1.42262864112854
            ],
            "min" : [
                -1.4749116897583008,
                -0.8021184802055359,
                -2.042104721069336
            ],
            "type" : "VEC3"
        },
        {
            "bufferView" : 12,
            "componentType" : 5126,
            "count" : 386,
            "type" : "VEC3"
        },
        {
            "bufferView" : 13,
            "componentType" : 5126,
            "count" : 386,
            "max" : [
                1.0090678930282593,
                1.5482255220413208,
                -1.3504400253295898
            ],
            "min" : [
                -1.0809231996536255,
                -0.7398022413253784,
                -2.0627143383026123
            ],
            "type" : "VEC3"
        },
        {
            "bufferView" : 14,
            "componentType" : 5126,
            "count" : 386,
            "type" : "VEC3"
        },
        {
            "bufferView" : 15,
            "componentType" : 5126,
            "count" : 386,
            "max" : [
                0.6399632096290588,
                1.4874253273010254,
                -1.3960169553756714
            ],
            "min" : [
                -0.521629273891449,
                0.1771387904882431,
                -2.002777099609375
            ],
            "type" : "VEC3"
        },
        {
            "bufferView" : 16,
            "componentType" : 5126,
            "count" : 386,
            "type" : "VEC3"
        },
        {
            "bufferView" : 17,
            "componentType" : 5126,
            "count" : 121,
            "max" : [
                -0.22806474566459656,
                0.7845795154571533,
                -0.3031494617462158
            ],
            "min" : [
                -0.8210685849189758,
                0.19362588226795197,
                -0.8350169658660889
            ],
            "type" : "VEC3"
        },
        {
            "bufferView" : 18,
            "componentType" : 5126,
            "count" : 121,
            "type" : "VEC3"
        },
        {
            "bufferView" : 19,
            "componentType" : 5123,
            "count" : 714,
            "type" : "SCALAR"
        },
        {
            "bufferView" : 20,
            "componentType" : 5126,
            "count" : 121,
            "max" : [
                -0.22806474566459656,
                0.7845795154571533,
                -0.3031494617462158
            ],
            "min" : [
                -0.8210685849189758,
                0.19362588226795197,
                -0.8350169658660889
            ],
            "type" : "VEC3"
        },
        {
            "bufferView" : 21,
            "componentType" : 5126,
            "count" : 121,
            "type" : "VEC3"
        }
    ],
    "bufferViews" : [
        {
            "buffer" : 0,
            "byteLength" : 4632,
            "byteOffset" : 0,
            "target" : 34962
        },
        {
            "buffer" : 0,
            "byteLength" : 4632,
            "byteOffset" : 4632,
            "target" : 34962
        },
        {
            "buffer" : 0,
            "byteLength" : 4608,
            "byteOffset" : 9264,
            "target" : 34963
        },
        {
            "buffer" : 0,
            "byteLength" : 4632,
            "byteOffset" : 13872,
            "target" : 34962
        },
        {
            "buffer" : 0,
            "byteLength" : 4632,
            "byteOffset" : 18504,
            "target" : 34962
        },
        {
            "buffer" : 0,
            "byteLength" : 4632,
            "byteOffset" : 23136,
            "target" : 34962
        },
        {
            "buffer" : 0,
            "byteLength" : 4632,
            "byteOffset" : 27768,
            "target" : 34962
        },
        {
            "buffer" : 0,
            "byteLength" : 4632,
            "byteOffset" : 32400,
            "target" : 34962
        },
        {
            "buffer" : 0,
            "byteLength" : 4632,
            "byteOffset" : 37032,
            "target" : 34962
        },
        {
            "buffer" : 0,
            "byteLength" : 4632,
            "byteOffset" : 41664,
            "target" : 34962
        },
        {
            "buffer" : 0,
            "byteLength" : 4632,
            "byteOffset" : 46296,
            "target" : 34962
        },
        {
            "buffer" : 0,
            "byteLength" : 4632,
            "byteOffset" : 50928,
            "target" : 34962
        },
        {
            "buffer" : 0,
            "byteLength" : 4632,
            "byteOffset" : 55560,
            "target" : 34962
        },
        {
            "buffer" : 0,
            "byteLength" : 4632,
            "byteOffset" : 60192,
            "target" : 34962
        },
        {
            "buffer" : 0,
            "byteLength" : 4632,
            "byteOffset" : 64824,
            "target" : 34962
        },
        {
            "buffer" : 0,
            "byteLength" : 4632,
            "byteOffset" : 69456,
            "target" : 34962
        },
        {
            "buffer" : 0,
            "byteLength" : 4632,
            "byteOffset" : 74088,
            "target" : 34962
        },
        {
            "buffer" : 0,
            "byteLength" : 1452,
            "byteOffset" : 78720,
            "target" : 34962
        },
        {
            "buffer" : 0,
            "byteLength" : 1452,
            "byteOffset" : 80172,
            "target" : 34962
        },
        {
            "buffer" : 0,
            "byteLength" : 1428,
            "byteOffset" : 81624,
            "target" : 34963
        },
        {
            "buffer" : 0,
            "byteLength" : 1452,
            "byteOffset" : 83052,
            "target" : 34962
        },
        {
            "buffer" : 0,
            "byteLength" : 1452,
            "byteOffset" : 84504,
            "target" : 34962
        }
    ],
    "buffers" : [
        {
            "byteLength" : 85956,
            "uri" : "data:application/octet-stream;base64,"
        }
    ]
}
