{
  "asset": {
    "generator": "Khronos glTF Blender I/O v3.4.50",
    "version": "2.0"
  },
  "scene": 0,
  "scenes": [
    {
      "name": "Scene",
      "nodes": [0, 1, 2, 3, 4, 5, 6, 7, 8, 9]
    }
  ],
  "nodes": [
    {
      "mesh": 0,
      "name": "Cube.006",
      "rotation": [
        -0.03008158504962921, -0.23823387920856476, 0.0008869115845300257, 0.9707414507865906
      ],
      "scale": [0.10033860802650452, 0.10033862292766571, 0.10033860802650452],
      "translation": [-0.4717215299606323, 0.416208952665329, 0.8443265557289124]
    },
    {
      "mesh": 1,
      "name": "Cube.008",
      "rotation": [
        -0.9428654909133911, -0.19291086494922638, 0.22965286672115326, 0.14508488774299622
      ],
      "scale": [-0.359546422958374, -0.359546422958374, -0.35954639315605164],
      "translation": [0.44504252076148987, 0.3750423789024353, 0.17337432503700256]
    },
    {
      "mesh": 2,
      "name": "pupil1",
      "rotation": [
        0.9707413911819458, -0.0008869131561368704, -0.23823389410972595, 0.030081583186984062
      ],
      "scale": [-0.15587827563285828, -0.15587830543518066, -0.1558782458305359],
      "translation": [0.5168673992156982, 0.3846184313297272, 0.8933241367340088]
    },
    {
      "mesh": 3,
      "name": "Cube.010",
      "rotation": [
        0.9707414507865906, -0.0008869111188687384, -0.23823384940624237, 0.03008158691227436
      ],
      "scale": [-0.0908455178141594, -0.09084554016590118, -0.09084553271532059],
      "translation": [0.47630223631858826, 0.42255985736846924, 0.8280363082885742]
    },
    {
      "mesh": 4,
      "name": "Cube.011",
      "rotation": [
        0.9707413911819458, -0.0008869126322679222, -0.23823395371437073, 0.03008158504962921
      ],
      "scale": [-0.025971196591854095, -0.02597120776772499, -0.025971200317144394],
      "translation": [0.4436943531036377, 0.4738086462020874, 0.7536963820457458]
    },
    {
      "mesh": 5,
      "name": "Cube.016",
      "rotation": [
        0.1450849324464798, -0.22965291142463684, -0.19291092455387115, 0.9428654909133911
      ],
      "scale": [0.359546422958374, 0.35954636335372925, 0.35954639315605164],
      "translation": [-0.4248495101928711, 0.39410898089408875, 0.1860465109348297]
    },
    {
      "mesh": 6,
      "name": "pupil2",
      "rotation": [
        -0.030081583186984062, -0.23823389410972595, 0.0008869115845300257, 0.9707414507865906
      ],
      "scale": [0.15587826073169708, 0.15587827563285828, 0.1558782309293747],
      "translation": [-0.4999290108680725, 0.3836013376712799, 0.8978854417800903]
    },
    {
      "mesh": 7,
      "name": "Cube.019",
      "rotation": [
        -0.030081583186984062, -0.23823386430740356, 0.0008869111188687384, 0.9707414507865906
      ],
      "scale": [-0.03100409358739853, -0.031004101037979126, -0.031004097312688828],
      "translation": [-0.3874048590660095, 0.4868626892566681, 0.6657534837722778]
    },
    {
      "mesh": 8,
      "name": "polySurface4.002",
      "rotation": [-0.7071065902709961, 0, 0, 0.7071069478988647],
      "scale": [-0.9806842803955078, -0.6264811158180237, -0.3980492353439331],
      "translation": [0.00494892243295908, 0.3383083641529083, 0.18312682211399078]
    },
    {
      "mesh": 9,
      "name": "polySurface4.003",
      "rotation": [0.70710688829422, 0, 0, 0.7071066498756409],
      "scale": [0.9806842803955078, 0.6264811158180237, 0.3980492353439331],
      "translation": [0.00494892243295908, 0.3383083641529083, 0.2139052152633667]
    }
  ],
  "materials": [
    {
      "doubleSided": true,
      "name": "Material.012",
      "pbrMetallicRoughness": {
        "baseColorFactor": [0.800000011920929, 0.800000011920929, 0.800000011920929, 1],
        "metallicFactor": 0,
        "roughnessFactor": 0.5
      }
    },
    {
      "doubleSided": true,
      "name": "Material.004",
      "pbrMetallicRoughness": {
        "baseColorFactor": [0.800000011920929, 0.800000011920929, 0.800000011920929, 1],
        "metallicFactor": 0,
        "roughnessFactor": 0.5
      }
    },
    {
      "doubleSided": true,
      "name": "Material.013",
      "pbrMetallicRoughness": {
        "baseColorFactor": [0.800000011920929, 0.800000011920929, 0.800000011920929, 1],
        "metallicFactor": 0,
        "roughnessFactor": 0.5
      }
    },
    {
      "doubleSided": true,
      "name": "Material.014",
      "pbrMetallicRoughness": {
        "baseColorFactor": [0.800000011920929, 0.800000011920929, 0.800000011920929, 1],
        "metallicFactor": 0,
        "roughnessFactor": 0.5
      }
    },
    {
      "doubleSided": true,
      "name": "Material.015",
      "pbrMetallicRoughness": {
        "baseColorFactor": [0.800000011920929, 0.800000011920929, 0.800000011920929, 1],
        "metallicFactor": 0,
        "roughnessFactor": 0.5
      }
    }
  ],
  "meshes": [
    {
      "name": "Mesh.017",
      "primitives": [
        {
          "attributes": {
            "POSITION": 0,
            "NORMAL": 1
          },
          "indices": 2,
          "material": 0
        }
      ]
    },
    {
      "name": "Mesh.018",
      "primitives": [
        {
          "attributes": {
            "POSITION": 3,
            "NORMAL": 4
          },
          "indices": 2,
          "material": 1
        }
      ]
    },
    {
      "name": "Mesh.019",
      "primitives": [
        {
          "attributes": {
            "POSITION": 5,
            "NORMAL": 6
          },
          "indices": 2,
          "material": 2
        }
      ]
    },
    {
      "name": "Mesh.020",
      "primitives": [
        {
          "attributes": {
            "POSITION": 7,
            "NORMAL": 8
          },
          "indices": 2,
          "material": 0
        }
      ]
    },
    {
      "name": "Mesh.021",
      "primitives": [
        {
          "attributes": {
            "POSITION": 9,
            "NORMAL": 10
          },
          "indices": 2,
          "material": 3
        }
      ]
    },
    {
      "name": "Mesh.022",
      "primitives": [
        {
          "attributes": {
            "POSITION": 11,
            "NORMAL": 12
          },
          "indices": 2,
          "material": 1
        }
      ]
    },
    {
      "name": "Mesh.023",
      "primitives": [
        {
          "attributes": {
            "POSITION": 13,
            "NORMAL": 14
          },
          "indices": 2,
          "material": 2
        }
      ]
    },
    {
      "name": "Mesh.024",
      "primitives": [
        {
          "attributes": {
            "POSITION": 15,
            "NORMAL": 16
          },
          "indices": 2,
          "material": 3
        }
      ]
    },
    {
      "name": "Mesh.025",
      "primitives": [
        {
          "attributes": {
            "POSITION": 17,
            "NORMAL": 18
          },
          "indices": 19,
          "material": 4
        }
      ]
    },
    {
      "name": "Mesh.026",
      "primitives": [
        {
          "attributes": {
            "POSITION": 20,
            "NORMAL": 21
          },
          "indices": 19,
          "material": 4
        }
      ]
    }
  ],
  "accessors": [
    {
      "bufferView": 0,
      "componentType": 5126,
      "count": 386,
      "max": [0.6348867416381836, 1.4007959365844727, -1.3038675785064697],
      "min": [-0.9652970433235168, -0.7243082523345947, -1.9203996658325195],
      "type": "VEC3"
    },
    {
      "bufferView": 1,
      "componentType": 5126,
      "count": 386,
      "type": "VEC3"
    },
    {
      "bufferView": 2,
      "componentType": 5123,
      "count": 2304,
      "type": "SCALAR"
    },
    {
      "bufferView": 3,
      "componentType": 5126,
      "count": 386,
      "max": [1.2096890211105347, 1.0500181913375854, 1.2395600080490112],
      "min": [-0.5678057074546814, -0.6655167937278748, -0.8046022057533264],
      "type": "VEC3"
    },
    {
      "bufferView": 4,
      "componentType": 5126,
      "count": 386,
      "type": "VEC3"
    },
    {
      "bufferView": 5,
      "componentType": 5126,
      "count": 386,
      "max": [0.6348867416381836, 1.4007959365844727, -1.3038675785064697],
      "min": [-0.9652970433235168, -0.7243082523345947, -1.9203996658325195],
      "type": "VEC3"
    },
    {
      "bufferView": 6,
      "componentType": 5126,
      "count": 386,
      "type": "VEC3"
    },
    {
      "bufferView": 7,
      "componentType": 5126,
      "count": 386,
      "max": [0.6348867416381836, 1.4007959365844727, -1.3038675785064697],
      "min": [-0.9652970433235168, -0.7243082523345947, -1.9203996658325195],
      "type": "VEC3"
    },
    {
      "bufferView": 8,
      "componentType": 5126,
      "count": 386,
      "type": "VEC3"
    },
    {
      "bufferView": 9,
      "componentType": 5126,
      "count": 386,
      "max": [0.6348867416381836, 1.4007959365844727, -1.3038675785064697],
      "min": [-0.9652970433235168, -0.7243082523345947, -1.9203996658325195],
      "type": "VEC3"
    },
    {
      "bufferView": 10,
      "componentType": 5126,
      "count": 386,
      "type": "VEC3"
    },
    {
      "bufferView": 11,
      "componentType": 5126,
      "count": 386,
      "max": [1.2096890211105347, 1.0500181913375854, 1.2395600080490112],
      "min": [-0.5678057074546814, -0.6655167937278748, -0.8046022057533264],
      "type": "VEC3"
    },
    {
      "bufferView": 12,
      "componentType": 5126,
      "count": 386,
      "type": "VEC3"
    },
    {
      "bufferView": 13,
      "componentType": 5126,
      "count": 386,
      "max": [0.6348867416381836, 1.4007959365844727, -1.3038675785064697],
      "min": [-0.9652970433235168, -0.7243082523345947, -1.9203996658325195],
      "type": "VEC3"
    },
    {
      "bufferView": 14,
      "componentType": 5126,
      "count": 386,
      "type": "VEC3"
    },
    {
      "bufferView": 15,
      "componentType": 5126,
      "count": 386,
      "max": [0.6348867416381836, 1.4007959365844727, -1.3038675785064697],
      "min": [-0.9652970433235168, -0.7243082523345947, -1.9203996658325195],
      "type": "VEC3"
    },
    {
      "bufferView": 16,
      "componentType": 5126,
      "count": 386,
      "type": "VEC3"
    },
    {
      "bufferView": 17,
      "componentType": 5126,
      "count": 121,
      "max": [-0.22806474566459656, 0.7845795154571533, -0.3031494617462158],
      "min": [-0.8210685849189758, 0.19362588226795197, -0.8350169658660889],
      "type": "VEC3"
    },
    {
      "bufferView": 18,
      "componentType": 5126,
      "count": 121,
      "type": "VEC3"
    },
    {
      "bufferView": 19,
      "componentType": 5123,
      "count": 714,
      "type": "SCALAR"
    },
    {
      "bufferView": 20,
      "componentType": 5126,
      "count": 121,
      "max": [-0.22806474566459656, 0.7845795154571533, -0.3031494617462158],
      "min": [-0.8210685849189758, 0.19362588226795197, -0.8350169658660889],
      "type": "VEC3"
    },
    {
      "bufferView": 21,
      "componentType": 5126,
      "count": 121,
      "type": "VEC3"
    }
  ],
  "bufferViews": [
    {
      "buffer": 0,
      "byteLength": 4632,
      "byteOffset": 0,
      "target": 34962
    },
    {
      "buffer": 0,
      "byteLength": 4632,
      "byteOffset": 4632,
      "target": 34962
    },
    {
      "buffer": 0,
      "byteLength": 4608,
      "byteOffset": 9264,
      "target": 34963
    },
    {
      "buffer": 0,
      "byteLength": 4632,
      "byteOffset": 13872,
      "target": 34962
    },
    {
      "buffer": 0,
      "byteLength": 4632,
      "byteOffset": 18504,
      "target": 34962
    },
    {
      "buffer": 0,
      "byteLength": 4632,
      "byteOffset": 23136,
      "target": 34962
    },
    {
      "buffer": 0,
      "byteLength": 4632,
      "byteOffset": 27768,
      "target": 34962
    },
    {
      "buffer": 0,
      "byteLength": 4632,
      "byteOffset": 32400,
      "target": 34962
    },
    {
      "buffer": 0,
      "byteLength": 4632,
      "byteOffset": 37032,
      "target": 34962
    },
    {
      "buffer": 0,
      "byteLength": 4632,
      "byteOffset": 41664,
      "target": 34962
    },
    {
      "buffer": 0,
      "byteLength": 4632,
      "byteOffset": 46296,
      "target": 34962
    },
    {
      "buffer": 0,
      "byteLength": 4632,
      "byteOffset": 50928,
      "target": 34962
    },
    {
      "buffer": 0,
      "byteLength": 4632,
      "byteOffset": 55560,
      "target": 34962
    },
    {
      "buffer": 0,
      "byteLength": 4632,
      "byteOffset": 60192,
      "target": 34962
    },
    {
      "buffer": 0,
      "byteLength": 4632,
      "byteOffset": 64824,
      "target": 34962
    },
    {
      "buffer": 0,
      "byteLength": 4632,
      "byteOffset": 69456,
      "target": 34962
    },
    {
      "buffer": 0,
      "byteLength": 4632,
      "byteOffset": 74088,
      "target": 34962
    },
    {
      "buffer": 0,
      "byteLength": 1452,
      "byteOffset": 78720,
      "target": 34962
    },
    {
      "buffer": 0,
      "byteLength": 1452,
      "byteOffset": 80172,
      "target": 34962
    },
    {
      "buffer": 0,
      "byteLength": 1428,
      "byteOffset": 81624,
      "target": 34963
    },
    {
      "buffer": 0,
      "byteLength": 1452,
      "byteOffset": 83052,
      "target": 34962
    },
    {
      "buffer": 0,
      "byteLength": 1452,
      "byteOffset": 84504,
      "target": 34962
    }
  ],
  "buffers": [
    {
      "byteLength": 85956,
      "uri": "data:application/octet-stream;base64,"
    }
  ]
}
