{
    "asset" : {
        "generator" : "Khronos glTF Blender I/O v3.4.50",
        "version" : "2.0"
    },
    "scene" : 0,
    "scenes" : [
        {
            "name" : "Scene",
            "nodes" : [
                0,
                1
            ]
        }
    ],
    "nodes" : [
        {
            "mesh" : 0,
            "name" : "polySurface4",
            "rotation" : [
                0.7071069478988647,
                0,
                0,
                0.7071066498756409
            ],
            "scale" : [
                0.9176358580589294,
                0.9176358580589294,
                0.9176358580589294
            ],
            "translation" : [
                0,
                0.04049783572554588,
                0
            ]
        },
        {
            "mesh" : 1,
            "name" : "polySurface7",
            "rotation" : [
                0.7071069478988647,
                0,
                0,
                0.7071066498756409
            ],
            "scale" : [
                0.9176358580589294,
                0.9176358580589294,
                0.9176358580589294
            ],
            "translation" : [
                0,
                0.04049783572554588,
                0
            ]
        }
    ],
    "materials" : [
        {
            "doubleSided" : true,
            "name" : "Material.001",
            "pbrMetallicRoughness" : {
                "baseColorFactor" : [
                    0.800000011920929,
                    0.800000011920929,
                    0.800000011920929,
                    1
                ],
                "metallicFactor" : 0,
                "roughnessFactor" : 0.5
            }
        }
    ],
    "meshes" : [
        {
            "name" : "Mesh.003",
            "primitives" : [
                {
                    "attributes" : {
                        "POSITION" : 0,
                        "NORMAL" : 1
                    },
                    "indices" : 2,
                    "material" : 0
                }
            ]
        },
        {
            "name" : "Mesh.006",
            "primitives" : [
                {
                    "attributes" : {
                        "POSITION" : 3,
                        "NORMAL" : 4
                    },
                    "indices" : 5,
                    "material" : 0
                }
            ]
        }
    ],
    "accessors" : [
        {
            "bufferView" : 0,
            "componentType" : 5126,
            "count" : 121,
            "max" : [
                -0.17208828032016754,
                0.838660717010498,
                -0.3496885299682617
            ],
            "min" : [
                -0.7686317563056946,
                0.4453056752681732,
                -0.559840202331543
            ],
            "type" : "VEC3"
        },
        {
            "bufferView" : 1,
            "componentType" : 5126,
            "count" : 121,
            "type" : "VEC3"
        },
        {
            "bufferView" : 2,
            "componentType" : 5123,
            "count" : 714,
            "type" : "SCALAR"
        },
        {
            "bufferView" : 3,
            "componentType" : 5126,
            "count" : 121,
            "max" : [
                0.7686317563056946,
                0.838660717010498,
                -0.3496885299682617
            ],
            "min" : [
                0.17208828032016754,
                0.4453056752681732,
                -0.559840202331543
            ],
            "type" : "VEC3"
        },
        {
            "bufferView" : 4,
            "componentType" : 5126,
            "count" : 121,
            "type" : "VEC3"
        },
        {
            "bufferView" : 5,
            "componentType" : 5123,
            "count" : 714,
            "type" : "SCALAR"
        }
    ],
    "bufferViews" : [
        {
            "buffer" : 0,
            "byteLength" : 1452,
            "byteOffset" : 0,
            "target" : 34962
        },
        {
            "buffer" : 0,
            "byteLength" : 1452,
            "byteOffset" : 1452,
            "target" : 34962
        },
        {
            "buffer" : 0,
            "byteLength" : 1428,
            "byteOffset" : 2904,
            "target" : 34963
        },
        {
            "buffer" : 0,
            "byteLength" : 1452,
            "byteOffset" : 4332,
            "target" : 34962
        },
        {
            "buffer" : 0,
            "byteLength" : 1452,
            "byteOffset" : 5784,
            "target" : 34962
        },
        {
            "buffer" : 0,
            "byteLength" : 1428,
            "byteOffset" : 7236,
            "target" : 34963
        }
    ],
    "buffers" : [
        {
            "byteLength" : 8664,
            "uri" : "data:application/octet-stream;base64,"
        }
    ]
}
