{
  "asset": {
    "generator": "Khronos glTF Blender I/O v3.4.50",
    "version": "2.0"
  },
  "scene": 0,
  "scenes": [
    {
      "name": "Scene",
      "nodes": [0]
    }
  ],
  "nodes": [
    {
      "mesh": 0,
      "name": "body",
      "rotation": [0.70710688829422, 0, 0, 0.7071066498756409],
      "scale": [0.13993558287620544, 0.13993558287620544, 0.13993558287620544],
      "translation": [0, -3.8393893241882324, -1.7321789264678955]
    }
  ],
  "materials": [
    {
      "doubleSided": true,
      "name": "Material",
      "pbrMetallicRoughness": {
        "baseColorFactor": [0.8000000715255737, 0.0009360494441352785, 0.33116453886032104, 1],
        "metallicFactor": 0,
        "roughnessFactor": 0.5
      }
    }
  ],
  "meshes": [
    {
      "name": "Dog01",
      "primitives": [
        {
          "attributes": {
            "POSITION": 0,
            "NORMAL": 1
          },
          "indices": 2,
          "material": 0
        }
      ]
    }
  ],
  "accessors": [
    {
      "bufferView": 0,
      "componentType": 5126,
      "count": 16984,
      "max": [5.491137981414795, 24.830705642700195, -0.05057516694068909],
      "min": [-5.491137981414795, -13.955815315246582, -32.80949783325195],
      "type": "VEC3"
    },
    {
      "bufferView": 1,
      "componentType": 5126,
      "count": 16984,
      "type": "VEC3"
    },
    {
      "bufferView": 2,
      "componentType": 5123,
      "count": 101430,
      "type": "SCALAR"
    }
  ],
  "bufferViews": [
    {
      "buffer": 0,
      "byteLength": 203808,
      "byteOffset": 0,
      "target": 34962
    },
    {
      "buffer": 0,
      "byteLength": 203808,
      "byteOffset": 203808,
      "target": 34962
    },
    {
      "buffer": 0,
      "byteLength": 202860,
      "byteOffset": 407616,
      "target": 34963
    }
  ],
  "buffers": [
    {
      "byteLength": 610476,
      "uri": "data:application/octet-stream;base64,"
    }
  ]
}
