{
  "asset": {
    "generator": "Khronos glTF Blender I/O v3.4.50",
    "version": "2.0"
  },
  "scene": 0,
  "scenes": [
    {
      "name": "Scene",
      "nodes": [0]
    }
  ],
  "nodes": [
    {
      "mesh": 0,
      "name": "body",
      "rotation": [0.7071069478988647, 0, 0, 0.7071066498756409],
      "scale": [0.9176358580589294, 0.9176358580589294, 0.9176358580589294],
      "translation": [0, 0.04049783572554588, 0]
    }
  ],
  "materials": [
    {
      "doubleSided": true,
      "name": "Material.003",
      "pbrMetallicRoughness": {
        "baseColorFactor": [0.800000011920929, 0.800000011920929, 0.800000011920929, 1],
        "metallicFactor": 0,
        "roughnessFactor": 0.5
      }
    }
  ],
  "meshes": [
    {
      "name": "Mesh",
      "primitives": [
        {
          "attributes": {
            "POSITION": 0,
            "NORMAL": 1
          },
          "indices": 2,
          "material": 0
        }
      ]
    }
  ],
  "accessors": [
    {
      "bufferView": 0,
      "componentType": 5126,
      "count": 1046,
      "max": [1.0561552047729492, 1.455282211303711, 0.8213565349578857],
      "min": [-1.0561552047729492, -0.9702571034431458, -1.6375422477722168],
      "type": "VEC3"
    },
    {
      "bufferView": 1,
      "componentType": 5126,
      "count": 1046,
      "type": "VEC3"
    },
    {
      "bufferView": 2,
      "componentType": 5123,
      "count": 6186,
      "type": "SCALAR"
    }
  ],
  "bufferViews": [
    {
      "buffer": 0,
      "byteLength": 12552,
      "byteOffset": 0,
      "target": 34962
    },
    {
      "buffer": 0,
      "byteLength": 12552,
      "byteOffset": 12552,
      "target": 34962
    },
    {
      "buffer": 0,
      "byteLength": 12372,
      "byteOffset": 25104,
      "target": 34963
    }
  ],
  "buffers": [
    {
      "byteLength": 37476,
      "uri": "data:application/octet-stream;base64,"
    }
  ]
}
